<svg version="1" xmlns="http://www.w3.org/2000/svg" width="933.333" height="933.333" viewBox="0 0 700.000000 700.000000"><path d="M84.3 30.3c-.4.6 5.2 26.2 11.4 51.7 1.4 5.8 2.7 11.6 2.9 13 .3 1.4.7 3.3 1 4.2.3.9.7 2.5.9 3.5.5 2.4 10.5 45.2 11.2 47.8.2 1.1.6 2.7.7 3.5.1.8 1.2 5.8 2.5 11 1.2 5.2 3.1 13.3 4.2 18 1.1 4.7 2.4 10.3 3 12.5.5 2.2 1.1 4.9 1.4 6 .2 1.1 1.5 6.9 3 13 1.5 6 2.9 12.1 3.1 13.5.3 1.4 1 4.5 1.5 7 .6 2.5 1.2 5.2 1.4 6 .2.8 1.5 6.2 2.9 12 2.3 9.5 15.3 65.4 16.1 69 .2.8 1.3 5.5 2.4 10.5 3.7 16.1 6.3 27 6.6 28.5 2.7 11.4 7.2 30.7 9.1 39 1.3 5.8 3.3 14.3 4.4 19 1.1 4.7 3.4 14.3 5 21.5 1.7 7.1 3.4 14.1 3.6 15.5.3 1.4 2.3 10.1 4.5 19.5 2.3 9.3 4.2 17.7 4.4 18.5.2.8 4.7 20.2 10 43s9.8 42.5 10.1 43.6c.2 1.2 1.8 8 3.5 15 1.7 7.1 3.3 14 3.6 15.4.2 1.4 3.4 15.3 7.1 31l6.7 28.4 119.4.1c65.6 0 119.7-.3 120.2-.6.8-.5 7.3-25.9 9.3-35.9.2-1.4 1.6-7.2 3-13s6.8-29.2 12.1-52 10.7-46.2 12.1-52c1.4-5.8 3.1-13.4 4-17 .8-3.6 1.9-8.3 2.5-10.5.9-3.8 1.4-6.1 2.5-11.5.3-1.4 1-4.3 1.6-6.5.5-2.2 1.2-5.1 1.4-6.3.3-1.3 2-9 4-17 1.9-8.1 4.3-18.5 5.4-23.2 1.1-4.7 3.3-14.4 5.1-21.5 1.7-7.2 3.3-14.1 3.5-15.5.3-1.4.9-4.1 1.4-6 .5-1.9 1.1-4.6 1.4-6 .7-3.5 3.8-16.6 10.1-43.5 3.2-13.1 9.2-39.3 9.9-42.5 1-4.8 1.2-5.8 6.6-28.5 4.5-18.5 10.1-43.1 10.6-46 .3-1.7.9-4.1 1.4-5.5.5-1.4 1.1-3.9 1.3-5.5.3-1.7 1.6-7.5 3-13 1.3-5.5 3.3-13.6 4.3-18s1.8-8.2 1.9-8.5c.1-.3.5-2.1.9-4s2.1-9.1 3.8-16c1.6-6.9 3.1-13.4 3.4-14.5.2-1.1.6-2.9.8-4 .2-1.1.9-3.8 1.4-6 .6-2.2 1.3-5.1 1.6-6.5.2-1.4 1.3-6.3 2.4-11 1.9-7.7 5.3-22.4 11.1-47.3 1.2-4.9 2.3-10.1 2.6-11.5.3-1.5 1.1-5 1.9-7.8.7-2.9 1.1-5.6.7-6-.7-1-134.6-1.2-135.6-.3-.3.4-.7 1.5-.9 2.5-.2 1.1-2 9.6-4 18.9-2 9.4-3.9 18.4-4.2 20-.3 1.7-.9 4.6-1.4 6.5-.8 3.3-1.2 4.7-2.5 11.7-.3 1.6-3.3 15.6-6.6 31.3-3.4 15.7-6.3 29.8-6.6 31.5-.2 1.6-.8 4.6-1.3 6.5-1.2 4.6-8.9 41.5-9.6 46-.3 1.9-.8 3.8-1 4.1-.2.3-.6 2-.9 3.8-.3 1.8-1.9 9.4-3.5 16.9-1.6 7.6-3.2 14.8-3.4 16.2-.3 1.4-.7 3.6-1 5-1.4 6.6-1.7 7.6-2 9.5-.3 1.1-1.3 6-2.5 11-1.1 4.9-2.2 10.3-2.5 11.9-.5 2.6-1.4 7-3 15.1-1.8 8.5-13.9 65.4-14.2 66.7-.8 3.5-2.2 10.4-4.8 23.3-.2 1.1-1.2 5.4-2.1 9.5-.8 4.1-2 9.7-2.5 12.4-.6 2.7-1.4 6.5-2 8.5-.5 2-1.2 5.2-1.5 7.1-.3 1.9-1.7 8.5-3 14.7-1.4 6.1-2.6 12.2-2.9 13.5-.2 1.3-.7 3.4-1 4.8-.3 1.4-.8 3.6-1 5-.6 3.4-7.5 36.2-12.6 59.5-2.2 10.5-4.2 19.9-4.4 21-.2 1.1-.8 3.8-1.2 6-.4 2.2-.8 4.3-.9 4.7 0 .3-.3 1-.7 1.4-.6.5-31.7.9-40.9.5-1.2-.1-2.1-2.2-3.3-8.4-1-4.5-1.9-9.1-2.1-10.2-1.1-5-5.8-27.2-6.1-29-.7-3.5-4.5-21.7-17.4-82.5-3.3-15.7-6.3-29.9-6.6-31.5-.3-1.7-.9-4.6-1.4-6.5-.5-1.9-1.6-7.1-2.5-11.5-.9-4.4-1.8-8.7-2-9.5-3.4-16.6-5.1-24.5-7.2-34-1.3-6.3-2.7-12.6-2.9-14-.6-3.3-5.1-24.8-6.9-33-.8-3.6-3.2-15.1-5.4-25.5-2.2-10.5-5.2-24.6-6.7-31.5-1.4-6.9-2.8-13.4-3-14.5-.3-1.1-.9-4.3-1.5-7-.6-2.8-1.2-5.9-1.5-7-1.2-5.9-1.5-7.3-2-10.5-.3-1.9-.8-3.8-1-4.1-.2-.3-.6-2.1-.9-4-.3-1.9-1.3-6.3-2.1-9.9-.8-3.6-1.7-8.1-2-10-.3-1.9-.8-3.8-1-4.1-.2-.3-.6-2.1-.9-4-.3-1.9-1-5.2-1.5-7.4s-1.2-5.6-1.5-7.5c-.3-1.9-1-5.1-1.5-7-.5-1.9-1.2-4.9-1.4-6.5-.3-1.7-.8-4.1-1.1-5.5-.3-1.4-1.2-5.7-2-9.5-.8-3.9-1.7-8-2-9.3-.8-3.4-1.3-5.8-3.4-16.1C231 80.8 228.7 70 227 62c-3.8-18-5-23.7-5.7-27.5-.2-1.7-.9-3.4-1.4-4-1.1-1.1-134.9-1.4-135.6-.2z"/></svg>